# xmcd CD database file
# Copyright (C) 1993-1998 Ti Kan
#
# Track frame offsets:
#	150
#	24072
#	45340
#	68340
#	87630
#	112672
#	151800
#
# Disc length: 2346 seconds
#
# Revision: 1
# Processed by: cddbd v1.4b41PL1 Copyright (c) Steve Scherf et al.
# Submitted via: CDValet v3.31 - Copyright (c) 1997 Greg Leichner
#
DISCID=3c092807
DTITLE=Buddy Guy - Hold that Plane!
DYEAR=1900
DGENRE=
TTITLE0=Watermelon Man
TTITLE1=Hold that Plane
TTITLE2=I'm Ready
TTITLE3=My Time After Awhile
TTITLE4=You Don't Love Me
TTITLE5=Come See About Me
TTITLE6=Hello San Francisco
EXTD=1972, Vanguard Records
EXTT0=by Herbie Hancock
EXTT1=by Buddy Guy
EXTT2=by Willie Dixon
EXTT3=by Robert Geddins
EXTT4=by Ellis McDaniel
EXTT5=by Buddy Guy and Philip Guy
EXTT6=by Robert Geddins
PLAYORDER=
